<mxfile host="65bd71144e">
    <diagram id="wh_xPQmxPWUAb_N3ZFtB" name="Seite-1">
        <mxGraphModel dx="948" dy="641" grid="1" gridSize="10" guides="1" tooltips="1" connect="1" arrows="1" fold="1" page="1" pageScale="1" pageWidth="4681" pageHeight="3300" math="0" shadow="0">
            <root>
                <mxCell id="0"/>
                <mxCell id="1" parent="0"/>
                <mxCell id="2" value="" style="shape=image;verticalLabelPosition=bottom;labelBackgroundColor=default;verticalAlign=top;aspect=fixed;imageAspect=0;image=data:image/png,iVBORw0KGgoAAAANSUhEUgAAAXYAAAKMCAYAAAD/v5OHAAAgAElEQVR4nOzdeVxU5f4H8M8swCDrAC4giyiYkghuuCum1w0rNSzKtNK0zLKyn5bdNDPLsvKaml13rUxvklJZ2rVumisgCKhUIqCCgAYMi8qwzMzvD5qJgWEYYGDGw+f9enG7nfPMOd+ZXq/PeeZ5nnNGpNFoNCAiIsEQW7oAIiIyLwY7EZHAMNiJiARG2pjGVSoVqqpUUKnULVWPQRKJGFKpBFKJpFXPS0R0NxKZMnmqUqtRUVEFtbp1A702sVgMW1spJGJ+0SAiqk+Dwa5Sq6FUVrRWPSaRyWwZ7kRE9WgwHSsqqlqjjkaxxpqIiKyF0WCvUqksPvxiiFqtRpVKZekyiIiskvFgr7Le8LTm2oiILMlosLf26pfGsObaiIgsiTOQREQCw2AnIhIYBjsRkcA06s7T+lzPzcOu3V8hPfNqs44T0LULnnr8EXTq2MEcZRERtUlm6bFv2LSj2aEOAJczruCTLTvNUBERUdtllh77n/kFcHF2wofvvgmxSGS0bUGhAouXrsQ9gd2w+KXndNvVGg3+7/W3kJt30xwlERG1WWbpsWs0GtjY2DQY6kYLEYlgY2MDS//uR35BAb748j/47fc/dNvSMzIRPmYCwsdMQHpGpgWrIyJqmFl67HeDuPgETH9idr37d+/ahrAB/bBj1xfYvHUH+vUNxaZPPoaLi0srVklE1HxcFVNL98AAODg4YNiQwXB0dLR0OUREjdYqPfYbN/9Exw7tW+NUDQrpHYwtn66HXO5qcP+D90fgwfsjWrkqIiLzafEe++6vDmDXl/ta+jRERPSXFg323V8dwP+OnWjJU5hd9P4YBAaFYuHiJShTKhtsfzk9Ay8vWoL+g0YgMCgUU6Y9hmPHT+g9FbOiogIHvz+Ehx+biZ69+6Nn7/54+LGZOBMb35JvhYjaqBYL9gPfHbrrQr2xTp2JRdT0J3Hkp/9hQP++ePD+CGRlZePZ+S/hwDffQaPRQKVS4dPN2/DyoiXIyLiCiAnjcH/EBGRn5yD7+nVLvwUiEqA2sypGKznlPMKGhutta2jc3ZBrWVlY+e5qODo6YOumDQgN6Q0AuJR2GXPnvYBNW7ZjQP++EIvEOHT4v3B3c8Pmf69H7173AgDKyspw8898870xIqK/tFiPfcr9E/CPUSNa6vAWFxefgLTL6bh/0kSE9A7Wbffx8UbfvqHIvHIVGRlXYGNjA1tbWxSXlCAl5QIqKqp/ZtDe3h5+vj6WKp+IBKxFe+xRkQ8CAK5lW8+QQ1N654ZkXql+hMK/N2/DvzdvM9gmv6AAHTq0x1NPPI6ly1firZWrsHbdJ5j+6MOY/ugj6GAlK4WISFhafCgmKvJB5OTeaOnTWMyIYUPRu3cvg/u6dPGDSCTClAfvR1j/fvjyP/vwn6++xsZNW7F7z1dYt/YDDBk0sJUrJiKha5Uxdi/Pjq1xmlbl61M9jNLFzxfPz5sLiURitH3nzl5YtPBFvPj8PGzf+Tk+Wrsem7fuQK97g+Ds5NQaJRNRG8E7T5sopHcvdOjQHt989z1+/uWY3vJG7fNmypRK5BcUIO1yuu4ZOLa2troevlKphMYKfyyciO5ubW5VjLnc0z0Q8+Y+jXfe+wDzFyyEt3dnuMnlKC8vR3pGJiaM/wcemvogiotLMOfZ52EnkyGsf19cz8lFSsoFSKVSjLlvFJydnS39VohIYMwS7GKxWK/H2lRqtRpi8d3xJUIkEuGxqGno4ueLbTs/Q/zZRGRnX4e3d2c8PesJRE17CPYyGdzkcowKH4Gjv57A3q++hp2dHQb074vZT87EkMEDIWrGEzGJiAwRaYw8J/f2nYbvvASA99Z8grT0DAR084ekgWCurKxCxpWrsJfJ4OvTWbddpVbjcnomArt1xWsL55t0Xod2MpPaERG1JWbpsUeMuw8x31ficrrpzyovUyrxR1q63rYufj6IGHefOUoiImqzzNJjtxT22ImI6ro7BrSJiMhkDHYiIoFhsBMRCYzRYJdIrDf3rbk2IiJLMpqOUqnx2+QtyZprIyKyJOPBLpFY5Q1DYrEY0gaezUJE1FY1mNq2ttb31AFrrImIyFoYXceupVKrUVFRZZbHBjSHWCyGra20wbtbiYjaMpOCXatKpUJVlQoqVesGvEQihlQq4fALEZEJGhXsRERk/TimQUQkMAx2IiKBYbATEQkMg52ISGAY7EREAsNgJyISGAY7EZHAMNiJiASGwU5EJDAMdiIigWGwExEJDIOdiEhgGOxERALDYCciEhgGOxGRwDDYiYgEhsFORCQwDHYiIoFhsBMRCYy0MY2LiktQXFIKZXk5VCpVS9VERFZOIpFAZmcHF2cnuLo4m+WYzJe6mvo5m/Rj1srycuTm3YRarYKzswvs7GxhZ2fXrIKJ6O5VXl6O8vIKFJcUQyKWwLNTB8iamAnafBGLRXB0dIa9vR0kEomZK2689IxMdOvqb9Eamvo5NxjsyvJyXM26DkdHR7i7yQGIAGiABi8HRCRYIu3/aFBQWIhbt27Dz6dzo8Ndmy9ucjmcnZ1QnUbWkS8ZV66ga5culi2iiZ9zg0MxuXk34eToCDc3N1RfA6zgEyciy9Lo/gfubu4ARMjNuwl/P59GHSYn9wbc5HI4OTlBrba+bLF4RQY+55zcG+jaxdfoy4xOnhYVl0ClVkEul8OEERsiaoM0Gg3c5HKoVFUoKi4x+XVFxSWQSMRwcnJivphA+zmr1aoGP2ejwV5cUgpnJ/NMjBCRsDk7u6C4pNTk9sUlpXB0dGaoN5Ipn7PRYFeWl8POztasRRGRMNnZ2UJZXm5ye2V5OWQy5ktjmfI5Gw12lUoFW1uufiGihtna2jVqmaJKpYJYbPnVL3cbUz5n3qBERK2Owy8ti8FORK1OJBJZugRBY7ATEQlMox4pQEREDSspKcUflzOQd+Mmbv5ZABcXZ3h16oCArv7o0N69xc/PYCeiu55arUF8QhICA/zhJne1aC1/pKVjT/Q3UCrrrlwRi0UYMXQQxoQPg1TacvHbasFeVFyCb3/4EYWFRQjq0R1jR4+s06a8vByn4xIQn5gEby9PDBsyED6dvVqrRCK6S13PzcWBg4cxOKwvHowYZ7E6fvn1FH78+RhEImBwWF/06B4AX5/OKCouwZWr2Th+KhZHj5/Gb39cxvw5M2Fr2zLLPVsl2KuqqvDeR+tx4+afAIDk8xdRplTW+Q+w7bM9iE9IAgCk/nYJ8YnJWP32Ukil1rckSqPRICs7G85OTnB1tWwPgaitq6ysAgBUVFRarIaMK9fw48/H4OzshMcfngJfn866ffYyGTw7dkD/PsE4+OPPiI0/h71ff4uZj0a2SC2tMnl6NjEZN27+iV5BPfDs0zPh0K4d/vvzUb21mFVVKqRc+A0O7drh2adnoldQDygURUhISm6NEhvtwoWLeOTRx/Hiy/+H4kbcRk1EwlNeXo490d9AJBJhxiNT9UK9JhsbG0yZNB7dA7oi9fc0pKVntkg9rRLst++UAQDae7ijZ/dA2NhIcedOGWouZRWJALVaDRtbG/S8pzs83N2qCxRZ58IdZ2dndOrUCf7+/rw7l6iNO3/xd5SW3sLgsH7w8W54+Hja5AiIRMDZcyktUk+rDMUE39sDErEYv/x6Er/8ehIAENSzu94Qi0Qiwb09uyMp5SJeXPSGbruTk2NrlNhofn6+OBD9H0uXQURWIPfGTQAw+emWTk6OcHdzw8XfLqGiosLsY+2tEuwd2ntg/jNP4Yu9X6NQUYQ+Ib0w/ZGpddo9N+dJfL4nGsdPxcLdzQ1RkQ/insBurVEikaAUFZcg76+wqY9npw5wcb67HvKn0WiQdT0HVVX6t9Tn5N4AAJTeuo2MK9fqvM6zYwfY28tarK7CwiIA1Vlnqo4dPJBfUIii4pJGvc4UrbYqpk9IMBKSzuPk6TiMHR0Odze3Om1sbGzQv28Ijp+KRa+ge9C/b0iTzqVUKrF8xTtISkrGmo/ex+kzsdix83MAwFNPzsDjjz2KGzduYs3adfj1+Al4eLjjhfnzMHHCeEgkElRUVOB/vxxDzDffIiExEeXlFQjq2RMLnp+HwYMHQSQSISMzE8/NfxGhoSFYvuyfkMlkWLtuA7bv2IWtmz9FYWEhPvl0E65fz0HYgP54bfH/oUsXv2Z9hkSmunHjJj5a929UVVUZ3G9jY4NFLz131wV7fEIy9n93qN79ly5n4NLljDrb/Xy8Me/pGS1Wl5Nz9chCcUkJOnYwLaRLS28DABwcHMxej0XWsSuV5UhLz6zzIJvKykoc+d+vAADPTh2bf57ycqxbvxFSqRTjx/4Dh/97BB+v+wT5+QVITjmPHvd0x5jRo/DTz7/g3fdWo0OHDhgYNgDZ169jwyefoleve/HUEzNRWnoLP/73CBYveQMbN6xF7+Bgo+f9fPeXKFIUYfR9oxB/NgGnTp/Be6s/xPur3oGLmX4fksiYe7oHYOELz+BfGzajslJ/pYjtX6Ee0M2yP/vWFD4+Xgjs5l8nO8qUSuTm3YSjowM6eNS9AahX0D0tWpfHXx3V7Ou56B7QtcH2Go0G13NzIRIB7drZm70eiwT7xxu3GN3v6uKM4UMGNvs8hYWFCOrZA/OfexYSiQQjRgzDSwsX4T9fRWPZG6/jwQcmAQC2btuB9Z98ivizCRgYNgBucjm2b92EDh3a644VENANb739DuLizjYY7PYye7z/6Uq0a9cOxcUleGXxa0hOScG1a9cQHNyr2e+LyBQ97wnEy8/P1Qv3uznUgeohldkzo+psz7hyDZt37MY9AV0xbcqkVq+rV9A9+PHno4hPTMawwWGwtbUx2v5U7FmoVGr07tUTLfHUHIsEu0QigZ+vN2xsbGptF8OnsxcmjL3PLFcxB4d2GBU+UvfDuN7endGhfXs4OzthyF9DKgDQu3d1UGu/trq6uiIv7wb2/mcfzl+4iN//+AOZmVcAALdu327wvJMiJqBdu3YAAGdnJwT1uAdxcfEor6ho9nsiaoya4S4C7upQt2ZuclcMDuuHE6fjceDgYTw8ZVK9DzrLu/EnDh05CqlUgoix97VIPRYJ9umPTMWoEUNb/Dwuzi5wcKw7fmVja6t3Ra39i+ixcfF4ZdFrsLWxwX33jcKM6Y8hIyMDOz/7wqTzakMdqH6KndgKfnGd2q6e9wTipefmQCQWMdRb0OiRw3Au+QLOJV9AUVExHnnoAbjWGno9eeYsDh35H6qqVHBxdoJNAz37prJIsJtj/Lyl3L59B1/u+Q+kUinWfbwGve4NAgAciPnWwpURNV1Qz+6WLkHw7O1lWPDsLOz6MhqZV7Pw/r8+gaOjI+SuLigrU6KouEQ3JObo0A7FJaXYumsPnnlqOuzszPuDRq1298/1nDyk/TVbffJ0XJ0JHWtRWVmB/IIC2NrawF5WvTzqzp07OJuQaOHKiMjaubg447k5T+C+EUPQoX17lJbewrWs6/gzvwCVlZXo0N4Dz8x6HK+88Aw8O3VATu4NbP/8K7PnYav02BVFxXj7/X+h/K/f6TtxOg7K8nLMn/tUa5y+URwcHBDUswf+c/4Clr31NgYNDENq6m/Iycm1dGlEVI/27m5wcGhX7638rUkqlWDs6JEYO3okbt2+g5t/5sPeXgYXJye9ucO5T07Hlp1f4mpWNnZ9GY2nHn+4zrBwU7VKj/1c8nmUl5cjfPgQrF29Aq4uzjibmGyVvXYbGxvMe2YOIiaOx6VLl/Ddwe8xccI4PD79UUuXRkT1cHJyxNLFL2Jg/z6WLkWPo0M7dO3iC8+OHeosCLG3l2HOU4/By7MjLmdcwfc//s9s5xVpjPz4YOofafDv0qXZJzkdexabd3yBUSOGYvKk8XjznQ+gLC/H+g/ftconNxJR02ReuYKgewJNamuufGkpmVeutEp95eXl2BfzPXp2D0C/Pr1Nek1Dn3OrDMUM6BeKQ0d+0XtWTFTkZIY6EbV5dnZ2eNzAI1aao1WCXSqVYtlrL+Po8VO4nH4Fo0YO5TNgiIhaSKstd5RKpRgzagTGjBrRWqckImqTrPNh50RE1GRGg10sFqOCt8ETkQkqKiogFpveVxSLxXUe5kUNM+VzNrpXZmfLYCcik5RXlENm4q+JaTQayOxsofzr3hYynSmfs9Fgd3Boh+KSYmhQ74pIIiJoNBqUlJTAwaFdw41R/QwlB4d2uFVa2sKVCYupn7PRYHd1doZIJIJCUWTW4ohIWBQKBUQiEVwb8cMdrs7OUKlVKGW4m8zUz9losEulUni4yVFaWoqCwkIYuZeJiNogjUaDgsIClN66BQ83OaRS0xfaSSQStHd3Q6FCwXBvQM3Pub27W4OPHjB65ykAqFQq3Lp9G/mFCmg0Gjg7OcPW1tbsTyMjortHeXk5KioqUFxSArFYBA83ORwdHBr9rJOqqircvnMH+YUKSMQSODo5QWZnZ7ZnpjRHa915aoyhz9mhXbsGL6ANBjtQ/eFXVlai9PZt3LlTBmV5BdRqtdmKJ6K7i1gshszOFu3a2cPJwQE2NjaN6q3XVFVVhaqqKpTcusV8qaXm5+zs6AipVGrS52xSsAOAWq2GSqWq98dxiajtkUqlkEgkjVrmaIhKpYJardb90d/EYrHuz9RvMiYHe0384ImouWFuiEaj4VzeXzQaDUQike6vMZoU7EREZL34SAEiIoFhsBMRCQyDnYhIYBjsREQCw2AnIhIYBjsRkcAw2ImIBKZR9wAXFpeiqOQ27pSVQ8WblIiIWpRELEY7ezu4OjvAzcXJ5NeZdINSWXkFsvPyIRGJ4OLsCJmtDcTixt0JRUREjaNWa6CsqERxyS2oNBp4d/KAvQk/ZtJgsJeVVyD9Wi46uLnA2dEeEnH1cyEaeYcrERE1kkbz13O61CqU3CrDzcJidPP1bDDcGxyKyc7LRwc3F8idHWFj07SntxERUdNIJGLYQAqJuPoBYNl5+Qj08zL6GqOTp4XFpZCIRAx1IiILs7GRQu7sCIlIhMJi4z9MYjTYi0puw4WhTkRkFWxspHBxdkRRyW2j7YwG+52ycji2k5m1MCIiajrHdjLcKSs32sZosKvUatiyt05EZDVsbaQNLjdv8Aalxj7gnYiIWo4pmcw7T4mIBIbBTkQkMBxAJyIykzJlBZQVFaiqVEFtwq+OikUiSG0kkNnawl7W8B2lpmKwExE1U1WVCiW37kCl0cDWxgb29jaQSBoeEFGp1FCp1bh1R4kyZTmcHdtBKpU0u55WD/ZCRRGSz6fiavZ15OTegLvcFX6+3ggO6oHOXp1auxwiomapqlJBUXwLUhspHE14jktNEokYEokYtjZSKMsroCi+BbmLY7PDvVWDPSnlItb9ewfulJXV2ScWi3H/hDGIfHAibGxsWrMsq7bzy69xLuUi5K4uePm5WXBxdqqzv7i4BM/MegwyOzsLVUnUdpXcugOpjRSyRoZ6bTI7Wyj/Op6bq+lPcjSk1YI95uCP2Pv1txCJRBh73wj0DemFwICuKCgoxO9p6Th4+Cd88/1/kZh0AW8v/T+zhlTyhd+w/Yt9dbb36X0vnnzsIbOdx9y0of3+W69CZmeH4pJSLH/vYwwa0AfjR4+wdHlEbV6ZsgJVajWc7M1zI6fMzhalt+6gTFnRrDH3Vgn21N/TsPfrb+Emd8VLzz2N7gH+un0O7TrD16czRg4bhC/27seRX45jw6ad+L8FzzT7vMUlpfjXxu0AgBWvv6zX272adR2HfzoGZXl5sy8i2vNMmTQWIb16NutYNY955Vo2Bg3ow544kZVSVlTAzta8Iwx2tjZQVlh5sJeVKbFu0w6IRCIsfH4OArp2MdjOztYWs2dG4eaf+Th7LgUpF35D72aEpLK8HDt3R6OLr7fBXrmfT2c889RjTT6+Jbg4O2H5ay9augwi+ktVpQr29uYNdolEgoqyymYdo8XXsZ85ew5FRcUYN3pkvaFe07zZMyASiXDsxJlmnffoiVgoikswZdLYZh2HiKg+ao2mwdUvSqUSr72+FGcTEk06pkQiNmmppDEt3mO/mpUNAOjRvZtJ7V1dXdCpY3vEJSY3eZhEWV6OPy6lY9CAPnUmGxt63abtXyLjapZuW0Pj8NrJTQC6cfyar2nKMQ///CsOHTkKADh05CgOHTmKCf8Ix+ABffCvjdsbHGPXDg0piooBoN6JVyISphYP9ps38wEA3l6eJr/Gu7MncvNuIr+gsFGv07pxMx+5N24ifPggk19zNes6Pt32BXp0D8DH7y0D8HdAfvzpjnpXnTz52EOYMmmswTH2ph5z/OgRBkO8uMT4M5hrnjN8+GDd63Z++TX+tXE7w52ola1dtwHbd+wCAPxw6LBu+1tvLsWUyQ+02HlbfChGLncFABQoikx+TVFRCQCYPYSuZl3Ha8vfx4uvrcCLr63A8vc+1oXlL8fPoEf3AL2etIuzE56aHoncGzfxR1pGo8/XEsc05ZyeHTsgfNhA3TbtcNTp+HNmPx8R1e+lBc8j7vRxTJwwHtu3bkLKuXiknItv0VAHWiHYPTu2BwCkZ141qb1Go0HGlWsQiURwdHAway1+Pp3x3vJX8fF7yzDr8Wm67doVKH16B9V5TccOHvDs2AHnUlIbda6WOKap5wwfPkjvm4CdnS3kLs7Iu/GnWc9HRNapxYdiwvr1wZ7ob/G/YycRMfY+2DWwiP/wT0ehUqkwOKxvkx8Z7OriDJlMhtwbf5q0/LCouARKpbJJ52rNY5p6TkNr9oHqsX0iEr4WD/YO7d0xbvQI/PDfX7B11x48N2dmvYF9LTsHX+77BjZSKR5/ZGqTz+ni7IQuvt7441I6wocNbHACVnshMKeWOKap53w08gGzracnortPqzy296EHJsLJ0RHHT8fhrffWIr+gsE6bw0eO4p9vvY/Kyko4OTk22LNvyKjhg5B74yaOnohtsK12qMLQ0Ih2ItbQkEprH7M55ySilqFWG1+aKJPJ0KlTR5w4ecosxzNFqwS7g0M7vPfWa+ji643fL13GC4uW4dmXX8eydz7EwtdX4IlnXsbOL/ehsqoKLs5OKFQUYeUH61FW1vShDD+fzng08gEcOnIUO7/8us7+3BrjzTI7O0yeNBa/X7qs17a4pBQ7dkejR/cAoz1gQ4Ha3GM2hczODuHDB+FcykUc/vlXvX3f/HDEpFU1RGQ6sUiEyqqGbyZ6cubjiD+bgN59BqB3nwE4EPNtvW0rKishbuYv14k0mvpXwif/nomQHv717W60yqoq7P/2EM4mpiDreo7ePm8vT8yeGQVfby+seH8trmZdR/eArvjnohdgZ9v03ruhdeRasx6fpheutdd/A8CEf4Sb9FyWms+jqblOvanH1L6u9nLH2tsMPQRMu+SxTPn3D96a+j6IyHSKkluoUqng2K6d2Y556/YdSKUSyJ0d623TUDa3arDXVFJSiuycPDg6tINc7gonx79XwNy+fQdvr/4YV65lIzioB159eR6kUj46noisS5myAkWltyGzs2320x0BQFleAWV5BVydHIw+K6ahbLbYT+M5OzshqEcgfH0664U6UD10s/TVl9DFzwfnU3/HF/85YKEqiYjqZy+zha2NFOUVlShTlsNIP9kojUaDMmU5yisqYWcjbfavKVntb546tLPHm6++hIH9+8Dfz8fS5RARGeTi2A5iUfXY+K3bZVCWV6CyqgpVKlWDf5VVVVCWV+DW7TJUVFZCJAKcHZs/rGPV4xv29jK8PP9pS5dBRFQvqVQCNxcnFN+6g4rKKmgqK4EKDQDjE6AikQgaVPfw1So17Gxt7t6fxiMiEhqpVAJ3V6dG/Zi1RqP5+8esHVrxx6wlYjGqVCpIJc2/ghARCZ29zLwBbUiVSgWJ2PgoutG97eztcPtO694WT0RE9bt9R4l29sbvpjca7K7ODigo4k0tRETWoqCoFK7Oxh+QaDTY3VycoFKpGe5ERFagoKgUKpUabi7GH2ne4HJHb08P5N4sZLgTEVlQQVEpcm8WwtvTo8G2Ru881Sorr0B2bj4kEjHcXZ3g0E7GCVUiohZWpVLh9h2lrqfu7ekBexPucDUp2LUKi0tRVHIbd8rKoVKrm1UwEREZJxGL0c7eDq7ODg0Ov9TUqGAnIiLrZ7WPFCAioqZhsBMRCQyDnYhIYBjsREQCw2AnIhIYBjsRkcAw2ImIBIbBTkQkMAx2IiKBYbATEQkMg52ISGAY7EREAsNgJyISGAY7EZHASBvTuEqlQlWVCioVn8VORNQQiUQMqVTS6j9MZNLz2FVqNSoqqqDmj2sQETWaWCyGra0UEnHrDJI0GOwqtRpKZUWrFENEJGQymW2rhHuDZ6ioqGrxIoiI2oLWylOjwV6lUnH4hYjITNRqNapUqhY/j3jMR9lIzSk3uLOqquULICJqS1ojV8Wn0suwYM+fBndy9QsRkXm1Rq6KAeBUelmLn4iIiFoHb1AiIhIYBjsRkcAw2ImIBKZRjxRoLeUq4GCGFGlF+tcdiUiD0PZq/MOPq3WIiOpjlcG+7YIt4vIMf5m4WCBBWRXwQDeGOxGRIVY5FJN403hZB9JtcDJHgt8LxQb/skpFaPgJOJaRmXkFjz8xC5mZV8xyvJhvvsOSN5ahTKk0y/Fai6mfQ5lSiSVvLENo/0FY8sYy/Pb7H5h4/xQkJJ5rpUqJ7j5W2WOvamCZp0YDbDlvY7TNvN6VGOjZer36mG++w9cHYrB+7Rq4urq02nmbKjPzCuYveBlvv7UM/fr2sXQ5BpUplVix8l14duqEpLNnAMBsF0QiIbPKYNcSiYCuzmrYNOGJl5VWcG/Vug0bAQALnn/OwpXUlZxyHiEhwQgK6mnpUuqVl5uH5OTziJw6xdKlEN1VrDrYR3auwpP33h0PIZv84P2Y/OD9li7DJGVKJWLj4zFwwADYy2SWLoeIzMyqgz3hpgQONmhSjx0AbMUahHVSw8PeSgfcLSQ19YWLQ6AAACAASURBVDdkZ1/Hq//3iqVLIaIW0OjJ08Sk85jzwiKcjkswuP9U7FnMeWERzqVcaHZxpRUifJ8pRczlpv19dckGP11r/i+XZGZewcT7pyC0/yDdJN6Xe/+DGU/ORlFRMYDqMXbtvycknkNo/0HYvvMzbN/5GUL7D9Jrq7Vuw0bdMWvvr3m8mhISz2Hi/VPqjDUXFRVhxpOz6z1eTSdPncaA/v3g6upi8HjaCcvak7IJief0jltUVKx3ztD+gxDzzXd659JO7l5M/Q0T759isPaax9d+vh+tXYcp06KQk5uL2XPnIbT/IKMTptrXav9qnkf7frRDY7VfU/O42rba91H7uMY+VyJr0aRVMWq1Gts+24P4xGS97fGJydj++V6o1WqredxvuUrUrNcnJJ7DlGlRePutZUg6ewZJZ89g4IABWP3hv+p9Tb++fZB09gxmPTkTs56ciaSzZ/D5zm26SdXCQgWmTIvC0CGDkXT2DE6fOApv7854/8OPmrS6JSsrG++sWo31a9foHe+FlxbWCaHMzCuIiz+L+yMmAgC6de0Kd3c3JKec17UpV5YjO/s6kpPPIy83T7e99gUhfMw4PDRlsu5zObBvLzZv3V4nQLOysvHNt9/h63178MN3B+Dv38Xg5zx77jwsX/pPrFq5Aq+8tAAH9u2Fl6cntm3+FElnz9Q7ybtuw0YsfXMFDuzbq6tl7tOzMGVaFBISz8FeJsPAAQMQfzZB7/PIysrWvS+tvNw8ZGVlI6R3MBISz9U57sQJ40z9z0JkMY0O9r6hwXh4yv3QaDTYvOMLnL/4GwDg/MXfsHnHF9BoNHgwYhz6hfY2e7FN0ZxhmDKlEtH7D2D50n/qhcrkB+/HrCdnNquumse0l8kQOXVKnSA1VWGhAq+8tEB34bCXyXTDLEeP/arXNjnlPHx8vNHJsxMAwNXVBQP690NsfLzuopKekQEXFxd07eqPQoUCQHXvPP5sAoYOGaz3udScV/D374K331qGwz8e0euVFxYq8OgjD9c7nl8z1Bs7T6G9UH2y7l96Fwztf6Po/QdQplQipHcwCgoKkZ6RAeDveYZZT85Ebl6e7r3X/HyysrIREhKs+6wA4NFHHr4rVj1R29akHvu4MeF4ZOoDUKvVWL9pB2IOHsb6TTugVqvxYMQ4PDBxrLnrbDJ3WdODXbsqw8fHu84+Xx+fJh/XzU2OkN7B+tvkcgDQBWlj1A4fALCT2cHbuzOuZWXpttU3aTp0yGBkZ19HubL6ufwnT53GmPtGoXtggK43q1AooNFo4CaX6/VqazP0DcDd3Q3yv95fbWnp6Vj65oomhTpQ90JV09Ahg3UXy06enRASEqzrpefl5qG09BaGDhmMrKxs3QX1WlYWPDt1gr1MBh8fbxw6/F9s2bq90XURWVKTb1AaO3oknnhsGtRqNb47dAQqlcrqQh1oXo9dG7Ju9YTS3UY7aRo+coTe9m5duwKo7qkXFRXjUtplhPQOxtAhg3XDFzUDtFChQGGh6Rcgb+/OsJPZ1dleWKjA4tf+iZCQYIwb948mvaeaFy5jtMMx2m8mySnn0T0wAEFBPeHj443klPN630qA6iG1A/v24vCPRzi+TneVZt15OmLoIDzx2MMQiUSYPGm81YU6ALjLrGOsv7EMfUtoiprfLGqOkdek7d2fPHUa6RkZcHJyRCfPTujWtStcXFxwPSdHr6fvJpfDza35Fzs3Nzm2bf4U2dnXsWLlu02aX2jMNycfH28kJ59HRkYmYuPjMXTIYF3gX8vK0g3TaC90QPXw0g/fHdDNWzw240neJEVWr9mPFBg+JAxbN3yI+yc0rcfVksQiwLVuR9FkhoYVgL+HNFpaQUEhFLWGZmpO9GkZGpuvPYxUe9K0Jm245ebl4cf/HtEFuJ3MDk5Ojjh9Jhalpbd0Qy9yuRwikajO5wJU9/oLCgoNDtMY4iaXY/3aNU0Od21YG5qbOHnqtN4w1d//PVNQWnpLF+A+Pt6IP5uAc0nJBi98wN/zFu7ubk0aLiNqTVb5rBhzcbfXQNSIRTG1l/m5urrgoSmTsfztd/SWxP344xEcOvzfBo/n6+NTZyWGqbQhtHnbdl3YJSSew/adn9Vpm5Obq9euqKgYy956W+/OUmNj0QAQ0rt6/Pl6Tq4ulLWBf/TYr/Dy7KQ34frSguex/O139JY3ZmZewdI3V2Du07MMrnypj6urC1a8uRTJyecbHe79+vbB+HH/wPwFL+v1pGO++Q6HfzyCubNn6eYTtBPFJ0+dQffAAF2Aa7+ZHD32q24YBgD++9PPesfUXrSEMjRHwmWVNyjZSoAKMzzmpaMZbkzSTujNnjtPt2350n9i+dJ/4usDMUZfGz5yBL4+EIPwMeMQ3OterF+7xuTzasNu/oKXMXhYOABg1pMzsW3zp1j65gq9thPGj0XEhPG6dtq22kcZmHKnaSfPTrrefc3wD+kdjM1bt8PR0VHvtdrx5/kLXsbyt9/Rbd+2+dMmPXvG378LPln3L8xf8DIemvYoPllX/3LS2hY8/xx8fXwwZVqUbltwr3vx5ec76/S+hw4ZjO07P9Nb1eTq6oLugQE4/OMRvdC+c/uO3jG9PD3rrL4hskYi+3mXNABwZ2NgnZ2371jmiYEfn7PFuQae8GiKx3pUYaxfyzySIOab7xAbH49lb7xu9bflJySew9p1G+6aB5QRCZ1Du5bNDKvssT/cvRId20lwpaRp4S4VAT3dVBjWuWUmTrU9YO2yOGumXXNe39gxEQmPVfbYrcnW7TsxelS43tfvdRs2Iv5sAnvARNQkbbLHbk083N31xlmB6jHtzf/+xOp760TUNrHHTkTUylq6xy7o5Y5ERG2RGACGdLO3dB1ERGQm4iHd7LHu0fYGd0ok7NATEZlTa+SqSKPR1HsXT5VKhfLyyhYvgoiorbCzs4FU0vwfADLG6KVDKpFALGavnYjIHMRicYuHOmDC5KmtLVdEEhGZQ2vlqdGhGC2VWo2Kiiqr+bk7IqK7iVgshq2tFJJWGgExKdi1qlQqVFWpoFIx4ImIGiKRiCGVSlpl+KWmRgU7ERFZP86MEhEJDIOdiEhgGOxERALDYCciEhgGOxGRwDDYiYgEhsFORCQwDHYiIoFhsBMRCYwgnvCl0WgQ/c0POHzkF9y+U2a0rb+fD2bPjEJA1y5G2xER3a0E8UiBE6fjsWHzTpPb29raYNGCZxF8b48WrIqIyDIE0WO/cfNPAMCsGY9g7H0jDLZZ8d5apP6RhsemPYg90d/ivTWfYOHzc9CvT+/WLJWIqMUJYoxd+6XDzta2/kai6n8MGdgfr7wwFxCJsGbDFpyJT2yFChtPoShCZNQMRO+PaZHjR++PQWTUDCgURS1y/IZ8sOZjLFy8BGVKpUXOTyRkggh2k/w14KTRaNC/T28sfvFZiMRirN24DRd/u2TZ2oiIzKjNBLuLizMAIOXCb0j9PQ02NjaYOHYUAODHn49ZsjQiIrMSxBi7KfqG9sLpuARs2bWnzr5bt25boCIiopbRZoJ92KAB8OzYARd++wNVlVUAgNt3ynDoyC8WroyIyLzazFCMSCRCQNcumBwxDpGTIxA5OUI3FNNUZUolFi5egsCgUN3fB2s+Nnl/TR+s+Viv3Zm4eIPt0jMyET5mgq6doQlIQ20+++JLkydL4+ITED5mAtIzMg3WuXDxEuTm3UBk1AzExSfo1a6tJy4+Qe/9xMUnNHheIjKPNhPs5qZQFGHGk3MAACmJZ5CWmoS4k0fRsWMHANXhOmHSFHh26oS01CTd/ti4s3phrA3/3Lw8veNs2/EZklPO650zLj4B4ydNwepVK5GWmoSUxDMAgH8ue0t3vNpt0lKTMGTQQLz97mqT31tgQDd4eHjgXFKy3vb0jEx8/8NhRE2LhMzODgAw/YnZGDl8GNJSk3D44AEkJibh+QWvYO++aN37WbVyORYvecPghYKIzI/B3kRbd+yCr6833lnxJuxlMgCAXO6KmdMfBQDsj/kWERPHY9HCF3Wvkctd8f67K5CYmITz5y8CAM6fv4hr17KxdMmresd5/90V6OzlqXttmVKJvfuiMffppxA2oB8AwF4mw/xn5+qOp22zauVyXRsAiJw6GXOffsrk9yaXuyLq4Yew96uv9Xr455KS4eHhgcCAbrptNevp1tUfERPHIz0jA/Ofnat7P6NHhRu8UBBRy2CwN4FCUYTYuLMYMmigLrwM7R85fFidfV5enujbNxTHjp8AABw7fgIDw/pDLnfVa+cml8PDw0P37zk5ubh6NQtTJz9gsN21rCxdmz6hIXXO69/Fr1HvsU9oCPLz85F2OR1A9YXl1JlYRD38kF6ttd+jfxc/eHh4wE0ub9T5iMh82szkqTkVKhTIz8+Hr4+P0f0NKVMqkZuXB89OnRpsW1BQiJTzFzB+0hSD+6MefggFBYUoKCho8FimqHkBChvQT3fRmP/sXLMcn4haDoO9CWr3phu7X8teJjMp1AHA3d0NvYN7YfWqt9Gtq7/BNukZmXB3dzfpeKbUFjUtEqs/WguFogjnkpLh5+cDrxrDQ0RknTgU0wQyexl8fb11wymN2Z+Tk4vExCTdEIZ/Fz/Exp2ts1ol7XK63uSpm1wOkUhkdJy6vjbaYZTG0o6ln4mLx96vvkbUtEiDQ09EZF0Y7E2gnbT8/ofDessXFYoifLZ7j9H9r76+DBETx+smHEePCgcAvL3qfd3KFoWiCKs/Wqt3Tu2E5pI3lustHSxTKvHZF1+iTKmst833PxzGdwcPGX1P0ftj6ixxlMtdMTCsP7Zu3wW5q4vepCkRWS8OxTRRt67+OLBvD+bMewGBQaG67bt3bTO6f9XK5YicOln373K5K7Z8uh5z5r2A3n0HAQBCegdj9bsrsPj1ZXrnjJw6Gb4+Ppj+xGy97bt3bdP1pLXHrtlm1crlWLVyOfZ+9XWj3+fUyQ/g+x8OY9DAAXUmeInIOgnieez7vz2Erw4cxDOzHseo4YNNft3NP/OxYPGbuLfnPVi6eEELVmh50ftjsPerr7Hl0/WNCuj0jEwsXrLU6Ng+EVkXQfTYuwd0BQDsO3AQx0+aPpZccusWAOCeAAZWffbHfMtJU6K7jCCCPahHIEYOG4S4hCSk/pFm8uukUilCgoMwYujAFqzu7qW903T1qpWcNCW6iwgi2MViMebNnoF5s2dYuhRBSM/IxOy5z+F6Ti5279qmdxcrEVk/QYyxExHR37jckYhIYBjsREQCw2AnIhIYBjsRkcAw2ImIBIbBTkQkMAx2IiKBYbATEQkMg52ISGAY7EREAsNgJyISGAY7EZHAMNiJiASGwU5EJDAMdiIigWGwExEJDIOdiEhgGOxERAIjiN881Wg0iP7mBxw+8gtu3ykz2tbfzwezZ0YhoGuXVqqOiKh1CeI3T0+cjseGzTtNbm9ra4NFC55F8L09WrAqIiLLEESP/cbNPwEAs2Y8grH3jTDYZsV7a5H6Rxoem/Yg9kR/i/fWfIKFz89Bvz69W7NUIqIWJ4gxdu2XDjtb2/obiar/MWRgf7zywlxAJMKaDVtwJj7RrLXExScgfMwEpGdkmvW4bcUHaz7GwsVLUKZUWroUoruWIILdJH8NOGk0GvTv0xuLX3wWIrEYazduw8XfLlm2NiIiM2ozwe7i4gwASLnwG1J/T4ONjQ0mjh0FAPjx52OWLM1qRO+PYW+ZSAAEMcZuir6hvXA6LgFbdu2ps+/WrdsWqIiIqGW0mWAfNmgAPDt2wIXf/kBVZRUA4PadMhw68ouFKyMiMq82MxQjEokQ0LULJkeMQ+TkCEROjtANxTSVQlGEyKgZCAwKRWBQKCKjZqCgsNBg2w/WfKxrFxgUirj4hDpt4uIT9NpoJ2G154mLT9Ad55/LViB8zASDx4neH4PIqBlQKIp0wys5uXl1alUoigAA6RmZCB8zAUveWI7vDh5C776DDE4A1zexqa0ven+MwVoDg0J1r6v9Hg3VT0TN02aC3dzSMzIxZdqjiHr4IaSlJiEtNQmLX3kJC15epNeuTKnEwsVLkJuXh5TEM0hLTcLuXdsw/YnZeqEWvT8G05+Yjd27tumO9+qihXrH2rRlO0YOH4a01CS88fpi9O0bimPHT+i1USiKsPerrxH18EOQy10BAFevZuHNt1Ziy6frkZaahJTEM/D19caceS9AoShCt67+OPrTIaxauRz3T5qAlMQzOPrTIXTr6q937JHDhyExMQk5Obl623/+5SgAYPSocN226U/M1tV6+OABJCYm4fkFr2Dvvmjd57Bq5XIsXvIGVxARmRmDvYn2x3yLiInjETl1sm5b2IB+WLVyuV678+cvIjExCfOfnQt7mUzXbu7TT2HvvmiUKZVIz8jEho2bsHvXNoQN6Kd77YRx/9AL1x49uuv228tkiJoWie9/OKwXjGmX05Gfn48+oSG6bQUFBXht8Su6oLeXybB0yasA/g5lUwQH34u+fUOxP+Zb3bYypRKnzsRiYFh/3fEBYO7TT+lq7dbVHxETxyM9I0Pvcxg9KhweHh44l5Rscg1E1DAGexMoFEWIjTuLkcOH1dnn6+Oj9+/Hjp9AxMTxdXq//l38cO1aNpRlSpxLSoaHhwcCA7oZPa9/Fz+9fw8M6FYnGA2dr2/fUHh5eeq9VmYvg6+vNzKvXDX+Zmuwl8kwZNBAxMad1Q3j5OTk4urVLEyd/IBe29qfjX8XP3h4eMBNLjf5fETUNAz2JihUKJCfn99guzKlErl5edi8dYfeuHJgUCiWvPF3zz7zylX4+npDZi8zerzaFw253BUDw/rj1JlYlCmVRi845tInNAT5+flIu5wOADiXlAw/P586Fw4ispw2syrGnNzkcnh4eDTYzl4mg2enTpj79FNYtPDFetv5d/FDbl5ek2qZOvkBLF6yFDk5uSgoqJ64bajnX/vcjaEdVjl2/ASCg+/FqTOxGDJooG54hYgsjz32JtAOY9SeuARQZ5t/Fz+9oQtDfH18DE5KmsLLyxN+fj44eeo09u6L1ps01TJ07JycXCQmJtX5FmCKkcOHITbuLI4eO45r17L1Jk2JyPIY7E2gnbjcvHUHovfH6LbHxSdg89Ydem21off2qvf1lgnGxSfoVsWEDeiHiInjMXvuc3oToYd+PNLgihHtuPc33/2Aq1ez9CZNta7n5OKTf2/WnV+hKMKrry9D376hCA6+V9fO0AUmen9MnaWP2m8E0V/H1Jk0JSLLY7A3UdiAfti9axuWvLFcN25+7PgJ7N61Ta+dXO6Kz3duAQD07jtI13bvvmi9UF208EU8/9wzGD9piq7NkZ//Z9LY9ehR4RCJRPWOdd8/aQIemBShO3/Y0HAMDOuPNatX6Q2haFe9jJ80xeiDzORyV0Q9/BB+PXGyRcfziahpBPE89v3fHsJXBw7imVmPY9TwwSa/7uaf+Viw+E3c2/MeLF28oAUrbFkKRRHmzHsBi195SW+5JFDd4z51JhbvrHjTrOPgLXVcImo+QUyedg/oCgDYd+Agjp+MNfl1JbduAQDuCfBvoKV1065Fb8ykaXPUvAmKoU5kfQQR7EE9AjFy2CDEJSQh9Y80k18nlUoREhyEEUMHtmB1LcvQnaYtzdCdpkRkPQQR7GKxGPNmz8C82TMsXUqr0Q6/JKecx6qVy/XugG0p0ftjsOSN5QjpHYwtn67npCmRlRLEGDsREf2Nq2KIiASGwU5EJDAMdiIigWGwExEJDIOdiEhgGOxERALDYCciEhgGOxGRwDDYiYgEhsFORCQwDHYiIoFhsBMRCQyDnYhIYBjsREQCw2AnIhIYBjsRkcAw2ImIBIbBTkQkMAx2IiKBscofs869Bfx0BUhXADV/kNXRFpgUAPR0t1hpRERWzyp/zPqDM0BcruF9NhLg7eFAN3nr1kREdLewyqGYpJv176tUAR/FARf+BC7m1/+Xmg+UVZmvprj4BISPmYD0jEzzHZSIqAVY5VBMhcr4/j/vAG+daPg4YhEwo1f18M3dLnp/DPZ+9TW2fLoecrmrpcshIivWrB77ydizSEg6b65azE6tqR6rJyJqS5rVY9+2ay/ulJVh7lPTcd+IIeaqyayul1q6AvOInDoZkVMnW7oMIroLNKvHPvWB8QCAzTt24/BPR81SEBERNU+zgn3S+DGY+WgkAGDn7n04ePgnsxRlaQpFESKjZiAwKBSBQaGIjJqBgsJCvTbpGZl46JHHcf5CKhYuXoLAoFBE748BUD3Rqn2t9i8uPkG3r/YkbJlSiYWLl2Dh4iUoUyp12+PiExAZNQMKRRGi98fo/n/N86dnZOKDNR/r1aptY+z9HPrxCCeDiQSq2atiJo4dhdkzowAAX/znAL47dHeHe3pGJqZMexRRDz+EtNQkpKUmYfErL2HBy4sMtl+77hPMf3Yu0lKTEDl1MsqUShw7fgJxJ4/qXr9q5XIsXvIG0jMyERjQDR4eHjiXlKw7hrJMiWvXspGYmIScnL/XeR47fgIDw/rXO1laUFCA8ZOmYOTwYUhLTUJK4hn4+nrj7VXv6y4QjX0/RHT3M8tyx3+MGo6RwwYBAL47dMQch7SY/THfImLieL3x7LAB/bBq5fI6bQsKCjBh/D/Qrau/bpu9TIZFC1/UC+PRo8Lh4eGBgoJCyOWuGBjWH6fOxOrCN+1yOuSuLggM6IaCgupvBgpFEWLjzmLk8GFG6121cjnCBvTTnTtqWqTeBaIx74eIhMEswX46LgG/noyFVCrFi/NmmeOQFmEsTH19fAy+pr7t6RmZCB8zAYFBoQgbGo7klPO4lpUFABg5fBiuXcuGsqw62I8dP4FxY8ege/dAHDtevY6zUKGARqOBu7tbvfW6u7ujT2hIrW3V7QsKCnXvx7+Ln8l1E9Hdr9nBHp+YjPWbdkIsEmHRgmdwb897zFGXRRQqFMjPzze5vbu7e53g1Y5nz577HLZt3oi01CTEnTyKkN7BujaBAd0AVPfUFYoiXLqUhj6hIRg5fBhi485CoSjCuaRk+Pn5wMvLs9nvhyFO1LY0a7nj+dTfsfaTrQCAhc/PQUhwkFmKshQ3uRweHh7NOsbWHbvg6+uNz3dugb1MZrCNzF4GX19vXe/cydkJXl6ecJPLIXd1Qfb1HJw6E4shgwbWewwiovo0q8e+/t87oNZoMH/OTPTr09tcNVlM7cCtydA2U6VdTkdyyt83ctnLZBgyaCBy8/Lw/aEfdQEus5fBydkJJ06dQmlJaZ1hlsby8vJE376hZn8/RGTdmhXsMx59CItffBZDBw0wVz0WpZ183Lx1h27pIlC97HDz1h0mHcO/i5/e5KVCUYTVH62t065PaAiuXs1CdvZ1XYBrA/+nn4/Cy8urWcMw5no/RHT3aVawDx8chj4hvcxVi47UjI8ms5U0rn3YgH7YvWsblryxXLfu+9jxE9i9a5tJr4+cOhkRE8dj/KQpCAwKxZx5L2D1uyv0xtiB6t60n58PXFyd9QK8T2gICgoK4OjoYJZhmOa+HyK6+1jlY3s/jAVic8xzrDBPYNEg8xxLSOLiE7D6o7V8qBiRAFnl0x3n9wM8HYFLhQ23rY8I1c9sH9PFbGUJyrHjJ+Dr6w2ZPSdniYTGKoPdXgpMv9fSVQhD9P4Y+Pr46G5i0m77/ofD2LZ5I1fdEAmQVQY7mY+vjw+mPzFbb1tI72Ac2LeHQzBEAmWVY+xERNR0VvnTeERE1HQMdiIigWGwExEJDIOdiEhgGOxERALDYCciEhgGOxGRwDDYiYgEhsFORCQwDHYiIoFhsBMRCQyDnYhIYBjsREQCw2AnIhIYBjsRkcAw2ImIBIbBTkQkMAx2IiKBYbATEQmMVf6YdbkK2P8H8EcBUPMHWaVioF8nYGI3i5VGRGT1rDLYP0kATl83vC/lJqCsAqbe07o1ERHdLawy2ONzje/fmwp42APu7Qzvd7QBfF0AURPOHb0/BqfOxOKdFW/CXiZrwhGIiCzLKoO9Sm18vwbA+gTjbV4aAAz1NltJRER3DasMdi0RgAA5YCNp/GsrG7g4WLP0jEwsXrIUq1e9jW5d/S1djtX7YM3HAIBFC1+0cCVE1sGqg32MPzA31NJVEBHdXaw62GNzAAcbwKaJizLtpMCQzkD7esbiiYiEqNGRGZ+QjEdnPY/jp+MM7j9+Kg6PznoeZ8+lNLu4knIg5hKw7/em/X1xATiU0bRzKxRFiIyagcCgUAQGheq+7tdUplRi4eIluja128XFJyB8zASkZ2TWec3CxUtQplTqtZ368HQ8/9L/YfykKUg5fwHjJ01BYFAoovfH1FtX7f2m+mDNx3rHiIv/e9JCe464+ARE74/Rtan9XrRqtgkMCkVk1AwoFEV6x9Ge75/LViB8zAS989U8jva10ftjsHDxEuTk5um9X+1+7WcWGBSKzVt3YPPWHXX2E7VVjQ52DTTQaDTYuOUznI5L1Nt3Oi4RG7d+Bo1GA5XKOga5y6sa/5rvDh7CgpcXYcun65GWmoTDBw/g+x8O6wVoekYmJkyaAs9OnZCWmoS01CTEnTyK2LizutAODOgGDw8PnEtK1r1OWabEtWvZSExMQk7O38t/jh0/gcGDwrBh7Yc4fPAAegf3wuGDB5CWmoTIqZMBVAdZ2NBwRD38kO6chw8ewIaNmwxeeAzRXlhy8/KQkngGaalJ2L1rG6Y/MbtO2E5/YjYA6M4VMXE8Xn19mV5wfrDmY2zYuElXa1pqEh64f6LecTZt2Y6Rw4chLTUJb7y+GH37huLY8RN6bRSKIuz96mtEPfwQ5HJXAMDVq1l4862Vuv8OKYln4OvrjTnzXoBCUYSwAf2QlpqEuU8/hblPP4W01CRE7/1c93qitqrRwR7WLxSPPzIFGo0GGzbtwLmUiwCAcykXsWHTDmg0GkQ+OBED+1vH4HhThmE6e3ni/XdX6AKiW1d/REwcj1NnYnW97P0xsOrOswAAIABJREFU3yJi4ni9CTu53BXvv7sCiYlJOH/+IuRyVwwM66/3urTL6ZC7uiAwoBsKCgoBVIdabNxZjBw+rN6aypRK7N0XjVUrl+uCXlvb6lUr8f0Phw32pms7f/4iEhOTMP/ZubrlnGED+mHu009h775ovW8Rc59+Su9cUyc/gPz8fKRdTgdQfaH5/ofD2LZ5o94k78zpj+qFa48e3RE2oB8AwF4mQ9S0yDr1pl1OR35+PvqEhui2FRQU4LXFr+iOZS+TYemSVwEAP/9ytMH3StRWNWn0etL4MZgRNRUqtRofrtuErw4cxIfrNkGlViPywYmInBxh7jqbzKMJwd63byi8vDz1tvl38cO1a9lQlimNBrGXl6dej3Tk8GG61wHVPfNxY8ege/dAXZtChQIajQbu7m711pSTk4urV7P0gk/L0DeD+hw7fgIRE8fXWW1T8/1p1X5/bnI5PDw8cC0rS3csQ59Vbf5d/Bqs11Bdho4ts5fB19cbmVeuNvheidqqJj8rJmLcaMx58jGo1Wrs//YQVCqV1YU60DITp4UKBfLz801qGxhQ/fyDtMvpUCiKcOlSGvqEhmDk8GGIjTsLhaII55KS4efnYzQgCwoKUVBQ0Ky6y5RK5Obl6caja/4teWN5k47l2alTgzdy+fr46P177W8ypnxjISLTNWtVzOiRQyEWibB555eYNjkCUx+YYK66zKa9vfmPqe25mkLbw9T2zp2cneDl5Qk3uRxyVxdkX8/BqTOxGDJooNGAdHd3g7u7e7PqtpfJ4NmpE+Y+/ZTRNd+mTD5qj9VUUyc/gMVLliInJ1c3JKW9CJqi9rcAIvpbs5/uOGrEEOzZvsEqQ10iAuQtEOy1w7qmnJxcJCYm6Xqf9jIZhgwaiNy8PHx/6EddgMvsZXBydsKJU6dQWlJqcIilJje5HCKRyOBwi6Hx6fr4d/HTfVNoruYcy8vLE35+Pjh56jT27ovWmzTVqj3BDPz9+db+FkBEfxP0Y3s92jXteTENsZfJMP/Zufj+h8N6q1EUiiK8+voyREwcr5ssBIA+oSG4ejUL2dnXdeGrDfyffj4KLy8vvWEYQyEul7ti8SsvYckby+uszlm85A08/9wzJt2lOnpUOADg7VXv11luaWgJojERE8frrVLR+mz3ngbDXvv+v/nuh3rnDq7n5OKTf2/W1an9fPv2DUVw8L26dua8WBEJgVUGu20THiFgSCcH8xzHkG5d/XFg3x7Exp3VjVNrlyLWHubQ9k5dXJ31ArxPaAgKCgrg6OigNwwjl7si6uGHsOSN5Xrr1MMG9NMtb9Sec/ykKVi9aqXe6hVj5HJXfL5zCwCgd99BuuPs3RetF5amsJfJsGb1KgwM64+woeG6Y924cdOkJYejR4VDJBLVO79w/6QJeGBShK7OsKHhGBjWH2tWr9L7vLQXq7Ch4VzHTgRApNFoNA03a13vnwbO5jX/OE8GAxEBzT8OtQyFoghz5r2Axa+8pPcNB+BTNomawyofKTAjGPB0AjIU+j+0YSobMdCrPRDO+TWrpl2L3phJUyJqmFUGu5cjMLOXpau4+2h7wMkp5w3ur31zkyUZutOUiMzDKoOdmkYud0X03s8tXYZRNS8+1nShIRISqxxjJyKiprPKVTFERNR0DHYiIoFhsBMRCQyDnYhIYBjsREQCw2AnIhIYBjsRkcAw2ImIBIbBTkQkMAx2IiKBYbATEQkMg52ISGAY7EREAsNgJyISGAY7EZHAMNiJiASGwU5EJDAMdiIigRHEb55qNBpEf/MDDh/5BbfvlBlt6+/ng9kzoxDQtUsrVUdE1LoE8ZunJ07HY8PmnSa3t7W1waIFzyL43h4tWBURkWUIosd+4+afAIBZMx7B2PtGGGyz4r21SP0jDY9NexB7or/Fe2s+wcLn56Bfn96tWSoRUYsTxBi79kuHna1t/Y1E1f8YMrA/XnlhLiASYc2GLTgTn2jWWuLiExA+ZgLSMzLNelwiIlMJIthN8teAk0ajQf8+vbH4xWchEouxduM2XPztkmVrIyIyozYT7C4uzgCAlAu/IfX3NNjY2GDi2FEAgB9/PmbJ0gAAH6z5GB+s+djSZRCRAAhijN0UfUN74XRcArbs2lNn361bty1QERFRy2gzwT5s0AB4duyAC7/9garKKgDA7TtlOHTkFwtXRkRkXm1mKEYkEiGgaxdMjhiHyMkRiJwcoRuKaSqFogiRUTMQGBSKwKBQREbNQEFhYZ120ftjdG0Cg0L1Jlfj4v+/vbuPaurK+wX+DUud8PwxJZJnClRA3loHy4sgL4/aiqNPhzctIiodS61FqVqtHVziQ0etY22peMuja6itqNfajiO3RKCKQK/TUcc3CC9GURwHgaodsC0QbpeW3DVdN/cP55xySAIBEwjH72ctF8M5e+/z22H6y8lv7yR1CAgMRcH+gyjYf1AcR6/vHrBvf3FUfHHSbNudebsl42lr6kzG0dbUSa470GJwc0srFix+Ec0trRbHb25pRcycOMn1ej8+vedMRA/nkUnsttbc0or5C19A6qIFaGrUoalRh6z1b+D1326QtNPru9H61S1cqa8S2yXEx2Ljm1ug13cjMiIcTY06ZCxfhozly9DUqIOm8FOoVC4D9h1MHD0GAzKzstF+96443uFDB7BkabpJsl2yNB0ALF7TkqzszZj5zAyxX872reL4Hh7uCAsLxZmz50wen8LPjiJ10QKoVC5D+lsQkRQT+xAVlx5DQnwsUpKTxGOREeHI2b5V0k6lcsGGzHVwVirFY8lJ82A0GtGl1/d7DWv6WhtHQ8M11Nfr8NrKDHG8yIhwZCxfhsIiDXoMBrFtxvJlkvGSk+aho6MDTTebLcba2dmJFxanIDIiXDyWkpwkjg8AqQtTcKK8UnL333SzGR0dHZgSGtLvY0FE1mNiHwK9vhvV2lrMfGaGyTkvT0+zfYSSS0BgKGIT5+NKw1V0dpqWbQbTV4jDZ6L3gHGcOXsOCfGx8PP1kRz3meiN27e/hqHnp8Ted17jVSqo1WrcvnPHYoyurq5mk3Pv8QP8/aBWq3FJd3nAuIho6B6ZxVNb6tLr0dHRYVXb5pZWpGeshlqthvb8aahULuKxh+0rxGHpyUTQYzCg/e5dHC+rQMH+gybnQ4KDrJrLw1KpXBAVORUXqqqREB8LQ48B1dpaZK1/Y1iuT/SoYGIfAuEOdiA9BgM++KgACfGx2JC5blDXeJi+fTkrlXB3c0PG8mX9jmWvxUsvrwlQOj8o/yQnzUNW9ma0tbWLr1gC/P3scl2iRxVLMUOgdFbCy2uCyUIgALPH+rqku4x/tLUP6dq9+1pakDQXh89Eb1Rra+2WvDs7OyUlFuDBk9OFqmq4u7mJdX0PD3d4e3vi/IWLKCzScNGUyA6Y2IfAWalE6sIUFOw/CE1xqXhcW1MnKXUId8q9E2pzSyvy9+w1GbNv4rWmr7VxAMDsWTEAgLdzdkgWSrU1dWa3IPZHqPn37Ze/Z69kYTR/z17U1+uQnDRPEvO06Ch8frwct27d4aIpkR0wsQ9RZEQ4Dh86gOxNW8WFzTNnz+HwoQOSdmtWvwovrwmInB6DgMBQfPBRAf6w63084eEuaSck3sjpMeKebmv6WhuHSuWCTz/eBwAIDosW2xYWaRAUNPmhHw9XV1fk5mzHxje3iGNXa2tRUnTEZGF09qwYKBQKeHt7wqPP40BENmCUgaOflxsXv7za+Je/XhhUv2++/c64+OXVxm07dtspspFTra01Llj8orGrS2/3a91sbjEmL1pivNncYlX7ri69ccHiF43V2lo7R0b0aJLF4umT/r4AgKKSMpw9X211v+/v3QMAPOUvv612Z86ekyxaOpIvT50GwEVTInuRRWIPnBSAmTOioa3TofFGk9X9xowZg5CgQDw7PcqO0dmXprgUXp6ekjcGaYpLcaK8EgcK9kje3OQI+E5TIvuTRWJ3cnLCqvQ0rEpPG+lQhp2Xp6f4EQCCkOAglBQdcajEqdd3Y8Wqtbh8pQE527dK3tlKRLYli+88JSKin3BXDBGRzDCxExHJDBM7EZHMMLETEckMEzsRkcwwsRMRyQwTOxGRzDCxExHJDBM7EZHMMLETEckMEzsRkcwwsRMRyQwTOxGRzDCxExHJDBM7EZHMMLETEckMEzsRkcwwsRMRyYwsvvPUaDRC83k5Kk+ewv0fevpt6+PtifSXUuHvO3GYoiMiGl6y+M7TcxdrkF/wsdXtx40biw2vr0TQ5El2jIqIaGTI4o79m2+/AwC8krYYz/3qWbNttr23C403mvCbhc/jiOYY3sv7AJlrViB8SvBwhkpEZHeyqLELLzp+Nm6c5UaKBz+mRU3F+rUZgEKBvPx9qKqpH9I1NcWlyMzKRo/BMKT+RET2IovEbpV/FZyMRiOmTglG1rqVUDg5YdeeA7h2/e8jGxsRkQ09Mon9scd+DgC4cvU6Gv/WhLFjxyL+uVkAgC++PDOSoRER2ZQsauzWCAt9Ghe1ddh36IjJuXv37o9ARERE9vHIJPYZ0RFwf/wXuHr9Bn78548AgPs/9KDi5KkRjoyIyLYemVKMQqGAv+9EJCX8GilJCUhJShBLMbayM283AgJDoSkuFY81t7QiZk4cAgJDERAYKi649hgMyMzKxs683SbjCH20NXUmYwv/Kr44iZTUNMm1gAeLur3b9T2/M283dubtNomrb7ve9PpupKSmQVtTZ3H8wc6HiOznkbljt7edebtxorwSlWUl8PP1AQBoa+qwZGk6Dh86gMiIcPQYDPjdlt/jd1t+j3e2vYVp0VEo/Owo9PpuqFQu4ljFpccQFhaKoKDJYh8AuFJfBWelEnp9N1asWovLVxqQumiBJIZqbS20509DpXJBc0sr0jNWAwBSkpPEdgX7D6L97l1UlJXAWakU4/Ty9ERkRLjFOe7d9z8RF/ufaGrUSeYnjG/NfIjI/h6ZO3Z7EpL6gYI9YlLvMRhQWKRBxvJlYrJ0Virx2soM1Nfr0NBwDbNnxQAAvjx1WhxLr+9GtbYW06Kj4KxUoqHhGm7f/hqbszfCWakEAKhULtjx7jY84eEu9mtuacWJ8kpkrX9DTKp+vj5Ys/pVMdkKQoKDJOMFBU3G3MQ4nDl7rt95Tpr0pOQJIjIiHDnbt4rjWzMfIrI/JvaHVKQpNknqANDW1o5bt+4gOWmepP14lQpqtRq379yBSuWCqMipuFBVLe6Hb7rZDABikjxz9hy8vCZA6aw0O47gku6y2btiL09PdHR0oEuvF49FRU6V3FE7K5Vwd3ND+927/e7Ln/nMDJNjvce3Zj5EZH8sxTyE42UVOF5WgZztWyVJHQA6O7twpeEqYhPnm+0rlFBmPjMDWdmb0NbWDj9fH5w5e05MvD0GA9rv3oW7m9uAd7utX90S4+mr9529vfU3HyIaHkzsD2FuYhzmJSZgxco1AKR1bFfX8QgOehq5OW+bJP3egoImIywsFJd0lzFepUK1thZZ698YdCw+E70xNzEO72x7a9hLHmq1GuNVKgC2mw8RDR1LMQ8pKnIqDh86gOxNWyU7S8arVFAoFLiku9xvf2elEtOio3ChqhrHT5TDy2uCWE4RzlVrayU1cuBBiePylQbxdy9PT9TX69DW1m7D2UmZq8H3LRX1Nx8iGh5M7DYgLCL2Tu4qlQtSFy1A9qatkm1+PQYDPvnjnyS17CmhIbh16w4+P15ussgo1Kbfztkh9tHru5H7/i5JDMKd8sY3t0ieBJpbWlHxxclBzUfY3th362LB/oOSuWiKS1Gw/yBSF6ZIYu5vPkRkfyzF2IhQhsnetBUXqqrxzra3kJKcBC9PT3FLoODwoQOSZOfn64PoqAicKK/ElNAQSVuVygX7PvwDVqxai+CwaAAPdrXkvrsNWW9uEds5K5XIy83BzrzdiJz+00JlSHAQ9n34B5vMcd9H+Sgs0ojzecLDXbK905r5EJH9ySKxOzk9eOHx/wb50fLCp0IqnAb/wiUlOUlSU7d0LDIiXNz3PZCE+Fiz9XiVygWawk8lx4S7ci9PT8nxDZnrsCFzncVrWDrX+7izUmlyPQD4N2dn5OXmIC83x/IkerE0HyKyL1kk9if9fQEARSVlOHu+2up+39+7BwB4yn9kk4+wBz03Z7vVfZpuNqOjowOuruPtGNnQDGU+RGQ7skjsgZMCMHNGNLR1OjTeaLK635gxYxASFIhnp0fZMbqB9ffOzOaWVvzvP3+JVRnLJceysjdhzepXHfKOmO80JRpZskjsTk5OWJWehlXpaSMdyqDszNuNgv0H+92mOF6lwpd/OYO8XfmS48LHFDgSa+ZDRPYni+88JSKin3C7IxGRzDCxExHJDBM7EZHMMLETEckMEzsRkcwwsRMRyQwTOxGRzDCxExHJDBM7EZHMMLETEckMEzsRkcwwsRMRyQwTOxGRzDCxExHJDBM7EZHMMLETEckMEzsRkcwwsRMRyYxDf+ep0WiE5vNyVJ48hfs/9PTb1sfbE+kvpcLfd+IwRUdE5Jgc+jtPz12sQX7Bx1a3HzduLDa8vhJBkyfZMSoiIsfm0Hfs33z7HQDglbTFeO5Xz5pts+29XWi80YTfLHweRzTH8F7eB8hcswLhU4KHM1QiIofh0DV24cXEz8aNs9xI8eDHtKipWL82A1AokJe/D1U19cMQIRGR43HoxG6VfxWSjEYjpk4JRta6lVA4OWHXngO4dv3vwxaGprgUKalp0Ou7+23X3NKKmDlx0NbUDVNkRPSoGfWJ/bHHfg4AuHL1Ohr/1oSxY8ci/rlZAIAvvjwzkqFhZ95u7MzbPaIxENGjx6Fr7NYIC30aF7V12HfoiMm5e/fuD1scKclJSElOGrCdn68PTv+5YhgiIqJH1ahP7DOiI+D++C9w9foN/PjPHwEA93/oQcXJUyMcGRHRyBj1pRiFQgF/34lISvg1UpISkJKUIJZibEWoiwcEhiIgMBSZWdn45I9/ktTUe9fYtTV1CAgMRcH+gyjYfxABgaHiOUs1dk1xqTh+QGAoPvnjn5CZlS0p5Qilnb7xaIpLTWLW67uRkpomGbNvO01xKTKzstFwtRExc+IQMycOzS2tZvtbs35ARI5h1Cd2e9PW1CE2cT5yc7ajqVGHpkYdpkVH4e13cy32iYwIR1OjDhnLlyFj+TI0NeqgKfwUKpWL2fY783aj8LOj0J4/jaZGHa7UV0F3pQHHy0xLNgX7D+KDjwpQUVaCpkYdDh86gOxNWyVPFNqaOkROj0HqogVizJVlJcjfs9ek5n/r1h1oiktRUVaC03+ugJ+vD5pbWjF/4QuS/lGRU7Fi1Vomd6JRgIm9Hz0GAwqLNMjZvhWREeHi8ZTkJGQsX2aTazS3tKKqugY73t0mJn5npRKbszciJDjIpH1IcBA2Z2+Es1IJAAgKmoy5iXE4c/acScy9a/5+vj7IzdmOE+WV4l05AHR2duKlF18QxwOA4tJjCAsLRUJ8rHhs+bKlAIAvT522ybyJyH6Y2PvR1taO+nodvDw9Tc75TPS2yTUu6S5DoVBgvEolOa50VsLLa4JJ+6jIqZI7f2elEu5ubmi/exc9BgPa2tpx69YdTAkNMekb4O8HtVqNS7rL4jG1Wi25tl7fjWptLVIXpkiSvRBP61e3Hmq+RGR/o37x1J46O7sAAK6u4+12jdavbsHLawKUzsqBG1uhs7MLnZ2dVrfve+0uvR4dHR1YsjTdbHtbvVIhIvthYpcZV9fxcHV1HXL/8SoV1Go1cnO2S8pPRDR6sBTTD3OlC+BBHftCVbVNrjHzmRmor9ehra1dclwoAw3WeJUKCoXCJGYAaLrZjI6ODrNlGoFQchFq9kQ0+jCx99JjMCAzKxuZWdnoMRigUrkgddECk10nJ8orze5Y6ctnojeqtbX97iQJCpqMsLBQbHxzi9iux2DABx8V4B99kr01VCoXZK1/A9mbtkq2Nza3tCIrexPWrH4Vfr4+Fvs7K5VIXZiCgv0HTbZHfnL4CHfFEI0CTOwDSElOQs72rViyNF3c0w0AOdu3Dth39qwYAEDk9BiL+8CdlUq8s+0teHlNQOT0GAQEhiIucT6WvZSGuYlxQ4o5MiJc3N4oxCxs2bTm3bHm+gcEhuLfnJ0tbtkkIsfh0J/HXnysAp+VlOHVV17ErGf+w+p+337Xgdez3sLkXz6FzVmv2yU2TXEpLlRV451tb0l2j9hKj8GA3235PaZFR1mVjImIBA69ePqkvy8AoKikDGfPW1/T/v7ePQDAU/6WSw4PQ6ixu7u52SWpAz/V2FMXpthlfCKSL4dO7IGTAjBzRjS0dTo03miyut+YMWMQEhSIZ6dHPXQMHxbsx3NzZkvq0vl79uL27a+xOXvjQ4+v13dj/8FDWLP6VfFJQq/vxsY3tyAhPpY7U4ho0Bw6sTs5OWFVehpWpaeNWAz/rlYjNnG+5NjcxDh8+vE+m9ytK52VaL97F8Fh0ZLjfd85SkRkLYeusRMR0eBxVwwRkcwwsRMRyQwTOxGRzDCxExHJDBM7EZHMMLETEckMEzsRkcwwsRMRyQwTOxGRzDCxExHJDBM7EZHMMLETEckMEzsRkcwwsRMRyQwTOxGRzDCxExHJDBM7EZHMMLETEcmMQ3/nqdFohObzclSePIX7P/T029bH2xPpL6XC33fiMEVHROSYHPo7T89drEF+wcdWtx83biw2vL4SQZMn2TEqIiLH5tB37N98+x0A4JW0xXjuV8+abbPtvV1ovNGE3yx8Hkc0x/Be3gfIXLMC4VOChzNUIiKH4dA1duHFxM/GjbPcSPHgx7SoqVi/NgNQKJCXvw9VNfXDECERkeNx6MRulX8VkoxGI6ZOCUbWupVQODlh154DuHb974MeTltTh5g5cWhuaTV7Xq/vRkpqGjTFpRb7BwSGmvzT1tQBADTFpWbPp6SmQa/vRo/BgMysbEmfvppbWhEzJ87kvHDc3Lj9xdbffIlo9HHoUow1Hnvs5wCAK1evw93tcYwdOxbxz83CsfKT+OLLM5j8yyeHJQ69vhsrVq0FAGjPn4ZK5SKe6/skEBIchH0f/kHSRtBjMIj/O/f9XRbb9aUpLkX+nr04ULAHfr4+4lj5e/ZK2j3h4S5pQ0TyM+oTe1jo07iorcO+Q0dMzt27d39YYugxGPB2zg5ERU7Fhsx1JudTkpMGPebcxDjcvv019h88ZHbM3vT6bhR+dhRrVr8qSdjOSuWAfYlIfkZ9Yp8RHQH3x3+Bq9dv4Md//ggAuP9DDypOnhq2GE6UV+L27a+xOXujzcZ0d3PDtOgo5O/Zi+Skef3eYXfp9ejo6ICXp6fNrk9Eo9eoT+wKhQL+vhMl+9e/6+gctsTeYzDgQlU1UhctsKpkMhgJ8bG4UFWNDz4qwDvb3oKzUmm2nYeHO8LCQlFYpEFQ0GSL7Yjo0TD6F09HWFtbO+rrdXa5W3ZWKvHaygzU1+tworzSqnbBYdEWF12J6NHAxD4CLl9pQOT0GMnOlJ15u8229fP1wZrVryJ/z95+d674+fqgoqwEcxPjsGRpusVdNf9oa0ds4nzJtTOzsiWLtkQ0ujGxj4CQ4CBoz59GU6NO/NffIufsWTFQq9UoLj3W77jOSiXycnNwpb5KTPB9d+Q84eGOyrISybXzcnNYviGSESb2hzRepYJarcbtO3fsdg2VygVZ699Awf6DVpVZhASfs33rgHf6RCQ/TOwPSaVyQVTkVFyoqrZrOSMyIhwZy5ch9/1d6OzssqqPcKd/SXfZbnERkeNhYreB5KR5Ay5w2sLyZUsBADv+x38Pqh+3QRI9WpjYbcDP1we5OduRvWmr2UXQnXm7bbJTRSjJXGm4in+0tYvHm1ta8da2dyWvGIQ3TXl5TUBQ0OSHvjYRjR6jfh+7PQg7R/o6fOgAAvz9zPaJjAjHlfoq/G7L7xEQGCo5FxIcJN5tAz/tiulNeKu/h4d7v7EFBU3G3MQ4HC+rkBw/89ez+FPhZ5JjGcuXmSzK9je3yIjwfq9NRKODQ38ee/GxCnxWUoZXX3kRs575D6v7fftdB17PeguTf/kUNme9bscIiYgcj0PfsT/p7wsAKCopw9nz1Vb3+/7ePQDAU/78oCsievQ4dGIPnBSAmTOioa3TofFGk9X9xowZg5CgQDw7PcqO0REROSaHLsUQEdHgcVcMEZHMMLETEckMEzsRkcwwsRMRyQwTOxGRzDCxExHJDBM7EZHMMLETEckMEzsRkcwwsRMRyQwTOxGRzDCxExHJDBM7EZHMMLETEckMEzsRkcwwsRMRyQwTOxGRzDCxExHJDBM7EZHMOPSXWRuNRmg+L0flyVO4/0NPv219vD2R/lIq/H0nDlN0RESOyaG/zPrcxRrkF3xsdftx48Ziw+srETR5kh2jIiJybA59x/7Nt98BAF5JW4znfvWs2Tbb3tuFxhtN+M3C53FEcwzv5X2AzDUrED4leDhDJSJyGA5dYxdeTPxs3DjLjRQPfkyLmor1azMAhQJ5+ftQVVM/DBHSw9Lru5GSmgZNcelIh0IkGw6d2K3yr0KS0WjE1CnByFq3EgonJ+zacwDXrv990MNpa+oQEBhq8m9n3m5Jux6DAZlZ2Va17d0+Zk4cmltaLZ43N15mVjZ6DAaLsVo635umuBQBgaFiAh1s/EQ0eoz6xP7YYz8HAFy5eh2Nf2vC2LFjEf/cLADAF1+eGdKYT3i4o7KsBE2NOjQ16qA9fxrV2lqzCTRj+TKxnfBvQ+Y6kzHb2tpx69YduLq64pLussVrmxvP3c0NwWHRFu9qj5dVoKHhmsUx9fpuFH521OrrmYufiEYPh66xWyMs9Glc1NZh36EjJufu3btvk2uoVC7IWv8GsrI3oa2tHX6+PoMe45LuMqKjIuAz0RsXqqqREB8LZ6XSqr4bMtdh5jMzsGRpOrw8PREZES6ee8LDHa6urjio3FmvAAAU9ElEQVRz9pzkeG9NN5vR0dGB4KCnBx03EY0+o/6OfUZ0BLZv3oDUlHlIeT4eKc/HI+4/Z9n8Oq6u4+Hq6jqkvsId88xnZmBKaAhu3bqDtrb2QY0RFDQZcxPjcObsOZNzz8+Nx4nySoslnsIiDRYvWgCFQjGk+IlodBn1iV2hUMDfdyKSEn6NlKQEpCQliKUYW+rs7IJCocB4lWrQfZtuNgMAAvz94OHhDm9vTxSXHhvUGM5KJaZFR6FaWwu9vltybtJTT0GtVpst8TQ0XEN9vQ7hU6YMOu6+mltasWDxi2i42iipzws1eaGOHxAYanEtYWfebkk9v0pb89BxEZHUqE/sw6G5pRVZ2ZuQumgBVCqXQfc/c/YcoiKnQqVy6TdBD8TL0xMdHR3o0uslx11dxyN10QIUfnbUZMwzZ88hIT4WAf5+g47bnM7OTqx9Yz1eW5mBpkYdDh86gIL9B5Ge8Rpav7ol1ukT4mOx8c0tYjzCYm373bu4Ul8lrl0cOPgJLl9psElsRPQAE7sZ/2hrR2zifPGu8oOPClBRVoKU5CSTtgX7D5rsKtHW1Inn9fpuVGtrMfOZGeKxKaEh6OjoEO/kbWH2rBgAwJenTovHmltacaK8UnLtwcZvzprVr4rrDEKJ6P98/z2WL1sqtklOmieZY0PDNdy+/TU2Z28U1xZUKhfseHcbnvBwH9qkicisUb94ag9PeLjjQMEe+Pn6QFtThyVL0zEtOspsYs9YvqzfXSRCou19x+zh4Y6wsNB+FzwHS6VyQVTkVMnC7CXdZYSFhSIoaDIMPea3Qw4Uf1+urq6YEhoi/u6sVMLdzQ0AoHS2vBjc+1VLb+NVKqjVaquvT0QD4x37ACIjwpGzfSvy9+w1WzPuT4/BgAtV1bh8pQGR02PEO+LgsGgcL6uwuOBpye07dxAWFgoPC3e4yUnzUF+vQ0PDNXHBNnVhitW7b+ylx2BA+927IxoD0aOEid0Ks2fFQK1WD3rBs62tHfX1D+rQffeKV5aVAEC/e9p7E54kpkVHWUzUvV8JmHulMFJ639UTkf0xsVtB2MdesP/ggPXn3i7pLkOtVptNrn6+PkiIj8WFquoB3zUKAPl79uL27a/FWro5zkolUhem4ER5JY78L82QF3vtwWeit9kF46abzVw8JbIxJnYrCYuEhUUaqxKxUAoxV1cWzHxmBurrdf3uaRc+S6VaW4t9H/5hwEQdFDQZYWGh6OzslNTCh0L4yILBPJlZIjwhvZ2zQ3z89Ppu5L6/66HHJiIpJnYrCXfDQm1cYG5XSWZWNq42NuLylYZ+d6QE+PuZlHj6jhc5PQZZ69+ApvBTq+6+he2UCfGxVr1D1lL81jx5DYZK5YJ9H/4Bt29/jeCwaAQEhmLFqrXIfXcbQoKDbHotokedQ38ee/GxCnxWUoZXX3kRs575D6v7fftdB17PeguTf/kUNme9bscIiYgcj0Nvd3zS3xcAUFRShrPnq63u9/29ewCAp/wH/5kuRESjnUMn9sBJAZg5IxraOh0abzRZ3W/MmDEICQrEs9Oj7BgdEZFjcuhSDBERDR4XT4mIZIaJnYhIZpjYiYhkhomdiEhmmNiJiGSGiZ2ISGaY2ImIZIaJnYhIZpjYiYhkhomdiEhmmNiJiGSGiZ2ISGaY2ImIZIaJnYhIZpjYiYhkhomdiEhmmNiJiGSGiZ2ISGaY2ImIZMahv8zaaDRC83k5Kk+ewv0fevpt6+PtifSXUuHvO3GYoiMickwO/WXW5y7WIL/gY6vbjxs3FhteX4mgyZPsGBURkWNz6Dv2b779DgDwStpiPPerZ8222fbeLjTeaMJvFj6PI5pjeC/vA2SuWYHwKcHDGSoRkcNw6Bq78GLiZ+PGWW6kePBjWtRUrF+bASgUyMvfh6qa+mGI0Ha0NXUICAxFQGAotDV1g+oXMycOzS2tdozu4en13UhJTYOmuHSkQyGSPYdO7Fb5VyHJaDRi6pRgZK1bCYWTE3btOYBr1/8+srFZSVtTh6zsTagsK0FTow6REeHYmbcbmVnZ6DEYRjo8E80trYiZEzeoJ6CBMPET2c6oT+yPPfZzAMCVq9fR+LcmjB07FvHPzQIAfPHlmZEMzWpnzp5DWFgoPDzcRzoUEzvzdmNn3u6RDoOIBsGha+zWCAt9Ghe1ddh36IjJuXv37o9ARLaxIXPdSIdgkZ+vD07/ucKmY6pULtAUfmrTMYkeVaM+sc+IjoD747/A1es38OM/fwQA3P+hBxUnT41wZEREI2PUl2IUCgX8fSciKeHXSElKQEpSgliKGaoegwGZWdniYmZAYKikHDHQeeBBHXrB4hfR3NKKnXm7xXYpqWnQ67vFNjFz4lCw/yCOl1UgOCxarKubq7ELdejeY3V2dZmdQ+9r9l2QFcbR1tRBU1wqtum9CCss5hbsP4iC/QclsZursfde/B3KIrC5Gnvf+fYd01Z/h4Fi6t2n4ouTksfJ0viW5i88dkKbzKxsfPLHP1kVD5G1Rn1itzW9vhtpL68AAFypr0JTow7a86fx+OO/APDgP8y4xPlwd3NDU6NOPF+trTVJxJ2dnYhNnI+Zz8xAU6MOV+qr4OU1AW/n7ECPwSCWNDKWL8PcxDhcqa9CXm4OnJVKk7iaW1oxf+ELSF20QLxu1vo38PpvN0jaCcmu/e5dMf7Dhw5gydJ0k0SzZGk6AIjjJcTHYuObW6DXdyMyIhxNjTpkLF+GjOXL0NSog6bwU6hULiax9RgMOHP2HLTnT4tj5WzfiqzsTUPeraPXd2PFqrWS+R4+dEDyeNjq72COtY+3ICt7szi+MP++j7m2pg6xifORm7NdbDctOgpvv5s7pMeIyBIm9j72HzwEL68JeGfbW2KCValc8NKSFwAAxaXHkBAfK6mBq1Qu2PHuNtTX69DQcE0yXs72rYiMCAcAOCuVSF2Ygvp6Hdra2gcVl3DdlOQk8VhkRDhytm+VtGtouIb6eh1eW5khxh8ZEY6M5ctQWKSRJLKM5csk4yUnzUNHRweabjYPKjZnpRIbMtdJkv7sWTFQq9Xo7DT/imIgXXo9jEYjpoSGiMciI8LFx9LefwdrH2/gwRPHC4tTxPEBICU5SfKY9xgMKCzSSOLo3Y7IlpjYe9Hru1GtrcW06Cizd83C+ZnPzDA55+HhjrCwUJw5e0485urqKklMD46NB4BBJbz+ruvl6Sn5/czZc0iIj4Wfr4/kuM9Eb9y+/TUMPT8l9r7jjVepoFarcfvOHatj6613mSFyegwuX2kY8ljjVSooFArxFURv9v47COP7TPQ2Odf38bY0PiB9zNva2lFfrzPb39x1iB7GqF88taUuvR4dHR1m/+PrfX64WXvdHoMB7Xfv4nhZBQr2HzQ5HxIcZI/wxLJJR0cHDhTsgZ+vj3hsqFQqF3z68T78bsvvETk9BgBw+NABREaE2/3vMND/D4ZCeAIRnlCI7ImJvRfhjnWo5+3F2us6K5Vwd3NDxvJl/W6XtPUinVC++vTjfWZf6QyVs1KJvNwc5OXmQFNciiVL05GzfatY5hkNvLwmQOlsu8eEyBosxfSidFbCy2uC5GW8teeFl9rmygP2jKvvMZ+J3qjW1o74Doumm824fKXBZuMJtejWr27Z/e9grpwjMHess7MTl3SXJcd6DAZcqKqGu5sbnJVKBPj7Qa1WW2xHZEtM7L04K5V4bWUGTpRXSrbN6fXd+OTwkX7Pb3xzCxLiYyULY7aMK3VhCgr2H5RsB9TW1JmUXGbPelC26LvjQ1tTN6SPALDmicJnordkIVKv70bu+7v6HVfYSmjpXa3NLa2o+OKkpL1Q97bH30FTXCpuYxzM4y3I37NXsgMof89e1NfrkJw0D8CD0lLqogXI3rRV8nc4UV6J42W2fbMXERN7H36+PigpOoJqba241zhyegwmPflkv+dTFy2w67tFIyPCcfjQAWRv2ipe98zZc5ItgMBPtWkACA6LFtsWFmkQFDR50NcVnigip8dY3GudkpyEhPhYxCbOR0BgKFasWovcd7c9dE1/x848k8dY2KVi77+DtY838GDxNDdnOza+uUVsW62tRUnREckidkpykrgNUmgHwOxOG6KHYnRgRz8vNy5+ebXxL3+9MKh+33z7nXHxy6uN23bstlNkZGtdXXrjgsUvGqu1tSMdSr+qtbXGBYtfNHZ16Y1Go9F4s7nFmLxoifFmc8uQxyw6WmL87Yb/Mv7Q02OrMOkR59CLp0/6+wIAikrKcPa89XXI7+/dAwA85e8zQEtyFMK+dUffNXLm7DmbLoj2rcUT2YJDJ/bASQGYOSMa2jodGm80Wd1vzJgxCAkKxLPTo+wYHdlScekxeHt7OswnXGqKS+Hl6Smp1WuKS3GivBIHCvYMKQl/WLAfz82ZLSnP5O/Zi9u3v8bm7I02iZsIcPDE7uTkhFXpaViVnjbSoZAdNLe0Ij1jNf7R1o65iXGSd/uONC9PT/EjFwQhwUEoKTpi9mMVrPHvajViE+dLjs1NjLP5NlEih/7OUyIiGjzuiiEikhkmdiIimWFiJyKSGSZ2IiKZYWInIpIZJnYiIplhYicikhkmdiIimWFiJyKSGSZ2IiKZYWInIpIZJnYiIplhYicikhkmdiIimWFiJyKSGSZ2IiKZYWInIpIZJnYiIplx6O88NRqN0HxejsqTp3D/h55+2/p4eyL9pVT4+04cpuiIiByTQ3/n6bmLNcgv+Njq9uPGjcWG11ciaPIkO0ZFROTYHPqO/ZtvvwMAvJK2GM/96lmzbba9twuNN5rwm4XP44jmGN7L+wCZa1YgfErwcIZKROQwHLrGLryY+Nm4cZYbKR78mBY1FevXZgAKBfLy96Gqpn4YIiQicjwOndit8q9CktFoxNQpwchatxIKJyfs2nMA167/fdjDaW5pRcycOGhr6ob92kREgAwS+2OP/RwAcOXqdTT+rQljx45F/HOzAABffHlmJEMbNE1xKTKzstFjMIx0KDYjxzkROTqHrrFbIyz0aVzU1mHfoSMm5+7duz/s8fj5+uD0nyuG/bpERIJRn9hnREfA/fFf4Or1G/jxnz8CAO7/0IOKk6dGODIiopEx6ksxCoUC/r4TkZTwa6QkJSAlKUEsxQyFUDpoa7+LlNQ0BASGIiAwFCmpadDru8V2zS2tWLD4RTRcbURmVjYCAkOhKS41qbHr9d1ISU2DtqYOmuJScbyYOXFobmkVx4qZE4fsTVtxvKwCwWHRkvP9EcYXxg0IDDWp7+/M293veWHevdsI87U0T0v9hHODmZNwjeaWVoux9rd2oSkuNfn7ED3SjA6sqKTMuPjl1cbTZy8Oqt+333UYF7+82vj7nP8e/DWPlhiTFy0xLn/1NWNXl95oNBqNP/T0GH+74b+MCxa/KB672dxiTF60xPjKitXGm80tYv+bzS3GmbNjjdXaWqPRaDR2demNCxa/aPT/ZYix6GiJ2C73/V2S8YRr/3bDfxl/6OmxKlZh7N7jVmtrxWsLcfces1pba/T/ZYjYRohl5uxYyTwO/fFPxq4uvcV5mpuDMPfe8VgzJ+EayYuWSOIqOloixirMJff9XQM+BkSPulF/x24PnZ2d+K+s9VCpXAAAzkolNmdvBAB8eeq0pF1c7H/Cz9dnwDEzli9DSnKS+Hty0jx0dHSg6WbzkOPs0uthNBoxJTREPBYZEY7IiHAAQEPDNdTX6/Daygw4K5Xi+Yzly1BYpEGPwQBtTR1OlFfiQMEeyTxeWvKCOH9z82xuacWJ8kpkrX9DbOfn64M1q19F4WdHB3333NnZiRcWp4ixA0BKcpIYKwCkLkzBifJKyV1/081mdHR0SB4DokcdE7sZYWGh8PBwlxxTOivh5TUBrV/dkhz38vS0asyZz8yQ/D5epYJarcbtO3eGHOd4lQoKhQIb39xiNpGeOXsOCfGxJk88PhO9cfv21zD0GHDm7Dmz8+2r7zwv6S4jLCwUQUGTTdp1dHSgS68f1FxcXV3NJufesQb4+0GtVuOS7vKAcyR6lI36xdOR5OrqClfX8SN2fZXKBZ9+vA+/2/J7RE6PAQAcPnQAkRHh6DEY0H73Lo6XVaBg/0GTviHBQTAY/i/a796Fu5ubeEdvjrl5tn51C8fLKnC8zHQH0BMDPEkMlUrlgqjIqbhQVY2E+FgYegyo1tYia/0bdrke0WjFxD5IPhO9RzoECWelEnm5OcjLzYGmuBRLlqYjZ/tWpCQnwd3NDRnLl2FD5jqL/d3d3IZ0XZ+J3pibGId3tr3V75OCLXh5TYDS+cE1kpPmISt7M9ra2tHZ2QUACPD3s+v1iUYblmLMqK/Xoa2tXXKsra0d9fU6q0svI0GoSQvlIp+J3qjW1vZb77amjTlenp5mH6eh6uzslJRYAKDHYMCFqmrJKwoPD3d4e3vi/IWLKCzSIHXRArHGT0QPMLGb8Y+2dnzwUYH4bkm9vhsb39xitqZsS4NNls0traj44qT4u17fjWptrfiqYvasB+WZt3N2SN75qa2pE7cNJsTHwstrAlasWitJ7p8cPtJvsg8KmoywsFCT+n7fmMzNSVtTZ3bbZf6evZKF0fw9e1Ffr0Ny0jzxmLNSiWnRUfj8eDlu3brDRVMiM5jYzZibGId5iQkIDotGQGAoIqfHICpyKvJyc+xadhCSZWzifKv3se/YmSfu+Y6cHoPURQvE3TdCDR6AOJeAwFAUFmnEJyihlBMVORWR02PENt98822/d8KW+m18cwuiIyMGPSdXV1fk5mzHxje3iGNVa2tRUnTEZGF09qwYKBQKeHt7DrjoS/RIGun9lv05+nm5cfHLq41/+euFQfX75tvvjItfXm3ctmP3oK852L3k9PCEfex998lbIuxd773nnYh+4tCLp0/6+wIAikrKcPZ8tdX9vr93DwDwlD+3wMmR8F4CLpoSmefQiT1wUgBmzoiGtk6HxhtNVvcbM2YMQoIC8ez0KDtGZ3+a4lJkb9pq9lxIcBD2ffiHR27hUK/vRuFnR7loStQPh07sTk5OWJWehlXpaSMdyohISU6SvFv1UabXd2PFqrW4fKVB3M5JROY59HeeEhHR4HFXDBGRzDCxExHJDBM7EZHMMLETEckMEzsRkcwwsRMRyQwTOxGRzDCxExHJDBM7EZHMMLETEckMEzsRkcz8f17sjlDEnqjjAAAAAElFTkSuQmCC;" vertex="1" parent="1">
                    <mxGeometry x="120" y="40" width="374" height="652" as="geometry"/>
                </mxCell>
                <mxCell id="4" value="CodeQL as binding precondition" style="rounded=0;whiteSpace=wrap;html=1;" vertex="1" parent="1">
                    <mxGeometry x="310" y="260" width="250" height="20" as="geometry"/>
                </mxCell>
                <mxCell id="5" value="Decryption and print of the *.gpg data" style="rounded=0;whiteSpace=wrap;html=1;" vertex="1" parent="1">
                    <mxGeometry x="310" y="300" width="250" height="20" as="geometry"/>
                </mxCell>
                <mxCell id="6" value="How to generate data" style="rounded=0;whiteSpace=wrap;html=1;" vertex="1" parent="1">
                    <mxGeometry x="310" y="420" width="250" height="20" as="geometry"/>
                </mxCell>
                <mxCell id="7" value="How to generate a key-file" style="rounded=0;whiteSpace=wrap;html=1;" vertex="1" parent="1">
                    <mxGeometry x="310" y="460" width="250" height="20" as="geometry"/>
                </mxCell>
                <mxCell id="8" value="Exclusion rule" style="rounded=0;whiteSpace=wrap;html=1;" vertex="1" parent="1">
                    <mxGeometry x="310" y="500" width="250" height="20" as="geometry"/>
                </mxCell>
                <mxCell id="9" value="Homepage" style="rounded=0;whiteSpace=wrap;html=1;" vertex="1" parent="1">
                    <mxGeometry x="310" y="580" width="250" height="20" as="geometry"/>
                </mxCell>
                <mxCell id="10" value="Encrypted data" style="rounded=0;whiteSpace=wrap;html=1;" vertex="1" parent="1">
                    <mxGeometry x="360" y="620" width="200" height="20" as="geometry"/>
                </mxCell>
                <mxCell id="11" value="Routine for printing a json data file" style="rounded=0;whiteSpace=wrap;html=1;" vertex="1" parent="1">
                    <mxGeometry x="310" y="660" width="250" height="20" as="geometry"/>
                </mxCell>
            </root>
        </mxGraphModel>
    </diagram>
</mxfile>